<svg class="icon" width="200" height="200" viewBox="0 0 1024 1024" xmlns="http://www.w3.org/2000/svg"><path d="M330.94 33.85A70.05 70.05 0 0 0 293.8 44.5 516.5 516.5 0 0 0 123 219.79a509.91 509.91 0 0 0-70.3 241.74c-2.47 71.57 9.18 141 34.64 206.46a507.62 507.62 0 0 0 272.76 282.4A514.37 514.37 0 0 0 564.3 992c6.16 0 12.4-.11 18.57-.32a512.22 512.22 0 0 0 417-241.1A70 70 0 0 0 990 664l-3.12-3.12-3.73-2.37c-.5-.32-50.82-32.34-117.2-80.68C805.17 533.5 718 466.05 648.18 396.22 609.07 357.11 545.7 287.46 465.89 177.7 417.81 111.59 386.29 61.78 386 61.29l-2.38-3.77-3.16-3.16a69.54 69.54 0 0 0-49.5-20.49z" fill="#4A4A4A"/><path d="M315 78.43C185.71 159.15 98.28 300.64 92.68 462.91c-9.55 276.62 212.19 498.35 488.81 488.81 162.27-5.6 303.76-93 384.48-222.31a30 30 0 0 0-4.2-37.17S758.89 563.5 619.89 424.5c-141-141-267.74-341.87-267.74-341.87a30 30 0 0 0-37.15-4.2z" fill="#FFFEF0"/><path d="M598.89 885.5c-243.56 0-441-197.44-441-441 0-151.13 76-284.5 191.91-364a30 30 0 0 0-34.8-2.07C185.71 159.15 98.28 300.64 92.68 462.91c-9.55 276.62 212.19 498.35 488.81 488.81 162.27-5.6 303.76-93 384.48-222.31a30 30 0 0 0-3-35.91c-79.51 115.94-212.91 192-364.08 192z" fill="#FFAC06"/><path d="M247.16 710.56s-5.71-7.66-8.47-11.56a439 439 0 0 1-80.8-254.5c0-151.13 76-284.5 191.91-364a30 30 0 0 0-34.8-2.07C185.71 159.15 98.28 300.64 92.68 462.91c-2.68 76.95 12.59 149.65 41.93 214.31 2.17 4.79 6.75 14.24 6.75 14.24z" fill="#E0CC10"/><path d="M188.69 606.72s-3.88-10.08-5.69-15.19a440.29 440.29 0 0 1-25.1-147c0-151.13 76-284.5 191.91-364a30 30 0 0 0-34.81-2.1C185.71 159.15 98.28 300.64 92.68 462.91a492.08 492.08 0 0 0 1.55 59.8c.49 5.65 1.77 16.87 1.77 16.87z" fill="#B3ED20"/><path d="M157.89 444.5s.11-11.25.32-16.83c5.41-144.17 80-270.63 191.6-347.13A30 30 0 0 0 315 78.43a473.58 473.58 0 0 0-203.4 267.3c-1.73 5.88-4.86 17.77-4.86 17.77z" fill="#99FF2A"/><path d="M605 512.27l-81.26 263.56a35.2 35.2 0 0 0 31.82 45.53c41.21 2.13 103.92 1.75 157.33-13.86 57-16.65 102.5-58.72 127.87-86.83a35.18 35.18 0 0 0-2.48-49.57L650.21 499.92A27.75 27.75 0 0 0 605 512.27zm-21.51-36.09l-96.27 293.71A32.12 32.12 0 0 1 439.5 787c-29-18.4-70.3-48.53-102.61-87.54-72-86.91-88.62-172-91.9-217.64a32.11 32.11 0 0 1 32.06-34.36h285.66a21.87 21.87 0 0 1 20.78 28.72zm-43.41-86.62L362.87 165.2a19.8 19.8 0 0 0-30.34-.9c-16.42 18.51-41.53 51.55-57.64 95.2-20.59 55.8-27.06 103.66-29.09 129.5a19.81 19.81 0 0 0 18.88 21.36l259 11.26c16.94.74 26.91-18.76 16.4-32.06z" fill="#FFED0D"/><path d="M715.9 642.5a15 15 0 0 1-11-4.76 287.93 287.93 0 0 1-29-28.24c-17-19-28-27-28-27-6-6-5.29-21.3.76-27s12.24-4 21.2.72c0 0 21.9 15.1 36 29.24a307.07 307.07 0 0 1 24 27c4 10 2.29 20.3-3.76 26a15 15 0 0 1-10.2 4.04zm11.99 21.5a17.5 17.5 0 1 0 35 0 17.5 17.5 0 1 0-35 0z" fill="#FFF"/></svg>