<svg class="icon" width="200" height="200" viewBox="0 0 1024 1024" xmlns="http://www.w3.org/2000/svg"><path d="M817.95 403.9a15.89 15.89 0 0 0 19.59 1c5.29-3.74 45.17-36.47 77.38-100.14S971.59 146.62 971 141.42c-1.18-8.46-7.79-14.1-15.45-14.13a16 16 0 0 0-1.85.1c-14.44 1.76-104 38.33-134.5 38.33-21.53 0-120.71-47.25-122.27-47.25a29.57 29.57 0 0 0-29.53 29.28c-.12 13 20.44 78.07 54.49 135 36.16 60.36 86.18 112.59 96.06 121.15z" fill="#FF773F"/><path d="M959.5 128.09c-4.84-1.38-10.18-.48-10.31.29-6 35.47-18 96.74-35.5 139.87-4.45 10.94-12.73 25.39-24.41 42.7 13.62-33.94 24.29-114.79 30.52-173 0 0-5.52 1.76-12.5 4.33-5.38 2-8.29 2.78-8.29 2.78S888.5 258.67 870.44 304.2c-5 12.61-12.33 27.32-20.13 42.37.72-11.24.94-21.24.64-29.91-1.67-48-7.3-109.6-11.72-152.85l-19.9 2c4.39 42.94 10 104.09 11.63 151.51.5 14.38-.54 32.84-3.08 55.08-7.12-22-14.59-47.54-20.16-72.6-5.68-25.57-9.86-73.91-12.11-140-.05-1.52-2.46-.66-11.65-4.22l-9.19-3.56c2.23 70.69 7.23 124.41 13.42 152.15 4 18 11.85 41 19.66 60.68-16.44-22-46.85-57.19-68.25-131.67-9.91-34.49-21.69-105.44-21.69-105.44s-5.48-2.54-10.89-4.9L697 118.48c4.82 31 12.92 81.95 23.35 120 6.15 22.45 22.85 53.24 46 93.52 10.33 17.95 45.55 66.12 45.55 66.12s6.63 9 13.26 9.33 12.69-2.29 17-5.29 76.4-92.8 90.05-126.4c17.78-43.78 30-104.71 36.24-141.38.22-1.25-4.11-4.91-8.95-6.29z" fill="#DD3C22"/><path d="M697 118.48c1.56 0 100.74 47.25 122.27 47.25 30.47 0 120.06-36.58 134.5-38.33a16 16 0 0 1 1.85-.1c7.65 0 14.27 5.67 15.45 14.13.57 5.19-23.94 99.72-56.11 163.31s-72.08 96.4-77.38 100.14a15.89 15.89 0 0 1-19.59-1c-9.87-8.56-59.9-60.79-96-121.17-34.05-56.9-54.61-122-54.49-135a29.57 29.57 0 0 1 29.5-29.23m0-40a69.57 69.57 0 0 0-69.53 68.91c-.15 16.29 9.15 44.58 17 65.45 8.38 22.34 22.68 56.16 43.19 90.44 38 63.52 90.38 118.91 104.15 130.85a55.89 55.89 0 0 0 68.89 3.42c1.54-1.09 15.66-11.31 35.49-33.79a384.59 384.59 0 0 0 54.48-81c18.44-36.46 33.46-79.76 42.81-109.67 4.69-15 9.07-30.26 12.34-43 5.15-20 5.79-26.07 5-33.06l-.07-.6-.08-.59a56.84 56.84 0 0 0-18.21-34.48A55.21 55.21 0 0 0 955.7 87.3h-.12a55.68 55.68 0 0 0-6.39.36h-.28c-9 1.09-20 4.78-46.14 13.78-16.22 5.57-34.6 11.89-51.27 16.83-19.44 5.76-28 7.06-31 7.35-3.23-.72-13.89-3.63-41-14.8-20-8.25-41.06-17.72-53.62-23.37-3.85-1.73-6.89-3.1-9.18-4.11-5.19-2.29-11.07-4.89-19.74-4.89z" fill="#4A4A4A"/><path d="M261.39 183.06a560.28 560.28 0 0 1 65-4.09c46.51 0 83 7.26 111.26 20.63 21.63 10.24 36 22.44 48.28 37.78 10.59 13.23 15.9 28.76 17.63 47.56 1.17 12.67.94 21.4-.59 48.42-.85 15.1-1.19 23.69-1.19 33.48 0 25.7 12.05 58.86 32.62 84.31 24.28 30 57.65 47.24 98.92 47.24 44.86 0 78.38-18.56 102.83-52 19.46-26.59 31.86-61.57 35.49-92.35 1.93-16.38 11.45-30 25.51-39 12-7.63 26.83-11.55 41.83-11.26 34.55.67 63.9 22.62 72 59.89 10.18 47 15.84 109.39 11.95 170.56-5.5 86.34-29 162.26-75.25 220.67C747.62 881.35 648 933.76 501.42 933.76c-45.84 0-96.56-9.39-146.1-27.59A481 481 0 0 1 205.72 818 458.66 458.66 0 0 1 88.45 660.2c-30.83-68-47-146-47-233.33 0-72 24-131.38 67.88-174.52 39.3-38.66 92.97-62.35 152.06-69.29z" fill="#FFD2B8"/><path d="M825 304.77a73 73 0 0 0-27.85 10.31c-14.06 9-23.58 22.62-25.51 39-3.63 30.78-16 65.77-35.49 92.35-24.45 33.4-58 52-102.83 52-41.28 0-74.64-17.19-98.92-47.24-20.57-25.45-32.62-58.6-32.62-84.31 0-9.79.34-18.37 1.19-33.48 1.52-27 1.75-35.75.59-48.42-1.73-18.8-7-34.32-17.63-47.56-12.27-15.34-26.65-27.54-48.28-37.78a188.68 188.68 0 0 0-34.88-12.28A248.9 248.9 0 0 0 332 361.47c0 137.93 111.81 249.74 249.74 249.74s249.75-111.82 249.75-249.74a250.48 250.48 0 0 0-6.49-56.7z" fill="#FFE4D4"/><path d="M194.5 676.07c-36.92 0-65.74-7.24-83.74-13.48A19.36 19.36 0 0 1 100.09 635l8.91-16.37c.17.09 17.55 9.27 47 14.24 39.37 6.63 80.56 3 122.44-10.75 27.52-9 67-25.11 98.63-50.32a173.08 173.08 0 0 0 15.4-13.8 20.81 20.81 0 0 1 25.53-3.26l.13.08a19.33 19.33 0 0 1 4 30c-19.21 19.81-58.88 51.55-131.23 75.32-35.97 11.8-68.5 15.93-96.4 15.93zm137.28 214.52c-5.12 0-10-.42-14.56-.29-9.56.29-56.2-31.36-56.2-31.36s12.49-14 23.34-11.95c.52.1 33.28 6 74.86 2.42 54.07-4.67 97-22.38 127.55-52.64 80.37-79.56 106-181.48 106.21-182.5a20 20 0 0 1 38.88 9.41c-1.11 4.6-28.23 113.7-116.94 201.52-37.1 36.73-90.16 58.92-153.43 64.16-10.49.89-20.49 1.23-29.71 1.23zm303.13 24.64s2.85-4.61 5-6.46c23.5-20.06 86.32-83.24 94.77-134.05 14.87-89.45-22.24-176.51-22.61-177.38a20 20 0 0 1 36.67-16c1.73 4 42.26 98.49 25.4 199.91-4.93 29.65-21.71 60-41.21 85.7-17.93 23.64-98.02 48.28-98.02 48.28z" fill="#FF9F74"/><path d="M911 363.71c-8.07-37.27-37.42-59.22-72-59.89a78.16 78.16 0 0 0-31.16 5.75c6.53 24.65 43 56.32 65.64 186 10.5 60.14-6 115.49-34.11 167.41-42.1 77.74-136 206.23-301 200.23C408.37 858.5 322.92 789 230.92 663c-89.42-122.47-88.5-318-88.5-318l-78.8-27.34a240.75 240.75 0 0 0-17.34 55.41c-4.86 53.8-4.86 175 42.17 287.12C114.8 723 156.47 775.12 205.72 818a481 481 0 0 0 149.6 88.2c49.54 18.2 100.26 27.59 146.1 27.59 146.58 0 246.2-52.41 346.26-178.82 46.23-58.41 69.75-134.32 75.25-220.67 3.89-61.2-1.77-123.58-11.93-170.59z" fill="#FF9580"/><path d="M212.91 635.41s-2-3.39-2.92-5.09C141.65 508.67 142.42 345 142.42 345l-78.8-27.34a240.75 240.75 0 0 0-17.34 55.41c-4.19 46.33-4.77 142.67 25.19 240.13 2 6.5 6.41 19.49 6.41 19.49s12.24 7.22 48.12 8c41 .85 86.91-5.28 86.91-5.28z" fill="#FF9649"/><path d="M911 363.71c-8.07-37.27-37.42-59.22-72-59.89a78.16 78.16 0 0 0-31.16 5.75c6.53 24.65 43 56.32 65.64 186 10.5 60.14-6 115.49-34.11 167.41-21.81 40.28-57.52 94.18-109.82 135.94l-53.72 100.7c62.35-28.38 117-75.43 171.85-144.68 46.23-58.41 69.75-134.32 75.25-220.67 3.89-61.17-1.77-123.55-11.93-170.56z" fill="#FF95DD"/><path d="M326.38 204a534.88 534.88 0 0 0-62.08 3.92C186.22 217 93.61 263 81.67 339.25c0 60 117.17 92.86 225 64.47 93.29-24.56 180.08-92 168.73-133.54S421.3 204 326.4 204" fill="#FFC56C"/><path d="M326.38 204a534.88 534.88 0 0 0-62.08 3.92c-78.08 9.15-145 17.61-156.83 79.22-7.14 37.17 53 82.78 147.48 71.85 117.84-13.63 203.77-74.46 203.1-117.41C457.72 220.07 421.3 204 326.4 204" fill="#FFEAC5"/><path d="M313.45 192.47c-59.34 0-105.84 11.26-125.29 41.25-20.9 32.23 43.84 50.61 138.84 45.87 71.93-3.59 111.58-33 89.63-61.78-16.89-22.19-43.84-25.34-103.18-25.34zM844 520.86a16 16 0 0 1-15.48-20.1c0-.09 4.21-17 2.41-46.7-1.84-30.23-15.64-64.74-15.78-65.08a16 16 0 0 1 29.67-12c.65 1.61 15.9 39.74 18.05 75.12s-3.19 56-3.42 56.84A16 16 0 0 1 844 520.86zm-24.58 35.37a19.5 19.5 0 1 0 39 0 19.5 19.5 0 1 0-39 0z" fill="#FFF"/><path d="M326.4 204c94.9 0 126.6 32.25 140 49 20.4 25.51 10.38 64.13 10.38 113.84 0 58 49.62 156.54 156.54 156.54 117.1 0 156.56-110.38 163.17-166.38 2-17.28 20.88-28.2 41-28.2 20.79 0 42.92 11.71 49.09 40.2 13.53 62.5 36.44 250.51-58.47 370.42-93.82 118.49-185.69 169.34-326.69 169.34-164.77 0-435-131.76-435-481.89 0-137.91 95.11-206.93 197.88-219a534.92 534.92 0 0 1 62.1-3.87m0-40a578.15 578.15 0 0 0-66.75 4.19 297.86 297.86 0 0 0-85.78 23 251.23 251.23 0 0 0-75.09 50.45 233.29 233.29 0 0 0-53 79.53C32.94 353 26.42 388.58 26.42 426.87c0 210.74 92.15 335.15 169.46 402.42a490.54 490.54 0 0 0 75.4 53.9 502.14 502.14 0 0 0 78.86 37.06c50.76 18.65 103.07 28.51 151.28 28.51 38.65 0 73.32-3.51 106-10.74a370.15 370.15 0 0 0 93.68-34.1c55.89-29.4 106.21-73.79 158.36-139.68 25.1-31.71 44.59-69.61 57.92-112.67 11-35.38 17.87-74.53 20.53-116.36 5.39-84.67-8-155.11-12.26-174.69-4.95-22.86-16.91-41.75-34.59-54.64a90.26 90.26 0 0 0-53.59-17.09c-17.75 0-35.2 5-49.15 14.14-18 11.76-29.17 29.29-31.54 49.37-2.76 23.39-12.8 58.07-32.7 85.25-22.57 30.83-52.25 45.82-90.73 45.82-18.73 0-36-4-51.25-11.86a112.81 112.81 0 0 1-36-29.8c-20.23-25-29.29-55.64-29.29-74.88 0-12 .66-23.57 1.29-34.76 2-36.05 4.15-73.33-20.43-104.06-9.18-11.48-24.72-28.31-53.58-42C413.14 171.4 373.54 164 326.4 164z" fill="#4A4A4A"/></svg>